<?xml version="1.0" ?><!-- Uploaded to: SVG Repo, www.svgrepo.com, Generator: SVG Repo Mixer Tools -->
<svg fill="#000000" width="800px" height="800px" viewBox="0 0 35 35" data-name="Layer 2" id="a23c8b98-967c-4812-aeb3-60f34cc8eeab" xmlns="http://www.w3.org/2000/svg"><path d="M30.559,33.805H4.441A4.2,4.2,0,0,1,.25,29.614V26.077a4.2,4.2,0,0,1,4.191-4.192H30.559a4.2,4.2,0,0,1,4.191,4.192v3.537A4.2,4.2,0,0,1,30.559,33.805ZM4.441,24.385A1.693,1.693,0,0,0,2.75,26.077v3.537a1.693,1.693,0,0,0,1.691,1.691H30.559a1.693,1.693,0,0,0,1.691-1.691V26.077a1.694,1.694,0,0,0-1.691-1.692Z"/><path d="M27.929,29.345a1.5,1.5,0,0,0,0-3,1.5,1.5,0,0,0,0,3Z"/><path d="M2.093,25.415a1.25,1.25,0,0,1-.883-2.133L22.931,1.561A1.25,1.25,0,1,1,24.7,3.329L2.977,25.049A1.246,1.246,0,0,1,2.093,25.415Z"/><path d="M26.279,19.048h-9.51a1.25,1.25,0,1,1,0-2.5h9.51a1.25,1.25,0,0,1,0,2.5Z"/></svg>